<?xml version="1.0" standalone="no"?>
<!DOCTYPE svg PUBLIC "-//W3C//DTD SVG 20010904//EN"
 "http://www.w3.org/TR/2001/REC-SVG-20010904/DTD/svg10.dtd">
<svg version="1.0" xmlns="http://www.w3.org/2000/svg"
 width="600.000000pt" height="600.000000pt" viewBox="0 0 600.000000 600.000000"
 preserveAspectRatio="xMidYMid meet">
<metadata>
Created by potrace 1.11, written by Peter Selinger 2001-2013
</metadata>
<g transform="translate(0.000000,600.000000) scale(0.100000,-0.100000)"
fill="#000000" stroke="none">
<path d="M2685 5836 c-170 -62 -782 -280 -1360 -486 -577 -206 -1052 -375
-1055 -377 -6 -5 411 -3617 419 -3625 3 -3 527 -294 1163 -647 l1156 -640
1159 641 c637 352 1159 642 1161 643 7 5 419 3621 414 3627 -8 8 -2729 978
-2740 977 -4 -1 -146 -52 -317 -113z m-345 -1353 c211 -58 361 -258 363 -483
0 -47 -5 -103 -11 -125 l-12 -40 150 -150 150 -150 -165 -165 -165 -165 -148
148 -148 148 -86 -12 c-68 -10 -100 -10 -156 0 -274 49 -463 305 -424 573 15
104 43 168 74 168 16 0 74 -51 198 -174 146 -145 181 -175 212 -181 82 -15
158 61 143 143 -6 30 -37 67 -188 220 -202 203 -201 202 -112 235 103 38 212
42 325 10z m976 -22 c181 -61 354 -171 540 -344 125 -117 234 -288 234 -368 0
-32 49 -129 66 -129 3 0 19 11 36 25 59 50 142 15 142 -60 0 -34 -10 -46 -125
-161 -108 -107 -130 -124 -158 -124 -69 0 -106 86 -61 143 11 14 20 27 20 29
0 7 -125 105 -162 128 -22 13 -50 20 -84 20 -39 0 -61 6 -89 26 l-38 26 -386
-384 -386 -384 -90 91 -91 90 384 386 384 386 -17 27 c-19 28 -17 54 10 125
13 36 14 53 5 94 -14 65 -39 105 -104 164 -80 73 -188 121 -348 153 -61 12
-71 22 -39 40 67 35 253 36 357 1z m370 -1582 c65 18 191 13 270 -10 237 -70
393 -315 356 -556 -14 -86 -43 -160 -67 -170 -12 -4 -63 40 -188 164 -95 94
-182 176 -194 182 -86 44 -195 -35 -178 -128 6 -30 38 -68 186 -217 98 -99
179 -185 179 -191 0 -35 -102 -73 -215 -80 -148 -10 -279 40 -386 146 -106
105 -153 221 -151 371 0 47 5 99 10 115 9 29 5 35 -157 197 l-166 168 165 165
165 165 166 -166 166 -166 39 11z m-963 63 c103 -103 109 -127 54 -189 -90
-101 -742 -830 -756 -845 -9 -9 -29 -20 -44 -24 -26 -6 -39 5 -163 127 -75 74
-140 144 -145 157 -17 43 -57 4 758 735 182 162 175 161 296 39z"/>
</g>
</svg>
